<svg width="576" height="163" viewBox="0 0 576 163" fill="none" xmlns="http://www.w3.org/2000/svg">
<g clip-path="url(#clip0_506_154)">
<path d="M118.76 162.72C143.038 162.72 162.719 143.038 162.719 118.76C162.719 94.4815 143.038 74.8001 118.76 74.8001C94.4815 74.8001 74.8 94.4815 74.8 118.76C74.8 143.038 94.4815 162.72 118.76 162.72Z" fill="#97CF26"/>
<path d="M36.1274 139.222C47.4284 139.222 56.5897 130.061 56.5897 118.76C56.5897 107.459 47.4284 98.2975 36.1274 98.2975C24.8263 98.2975 15.665 107.459 15.665 118.76C15.665 130.061 24.8263 139.222 36.1274 139.222Z" fill="#A169F7"/>
<path d="M118.76 64.4221C134.387 64.4221 147.055 51.754 147.055 36.1273C147.055 20.5005 134.387 7.83247 118.76 7.83247C103.133 7.83247 90.4651 20.5005 90.4651 36.1273C90.4651 51.754 103.133 64.4221 118.76 64.4221Z" fill="#FF6163"/>
<path d="M36.1273 72.2545C56.0798 72.2545 72.2545 56.0798 72.2545 36.1273C72.2545 16.1747 56.0798 0 36.1273 0C16.1747 0 0 16.1747 0 36.1273C0 56.0798 16.1747 72.2545 36.1273 72.2545Z" fill="#00AAFF"/>
<path d="M483.948 77.7372V60.4275H458.199V38.7511H436.836V60.4275H419.879V77.7372H436.836V111.613C436.836 129.04 445.55 140.691 467.814 140.691C473.335 140.596 478.797 139.529 483.948 137.538L481.344 120.561C478.281 121.397 475.121 121.825 471.945 121.834C465.581 121.834 458.238 119.093 458.238 110.301V77.7372H483.929M533.097 121.031C528.933 120.935 524.89 119.612 521.474 117.228C518.058 114.845 515.421 111.506 513.894 107.631C512.366 103.756 512.016 99.5158 512.888 95.4425C513.759 91.3692 515.813 87.6435 518.791 84.732C521.77 81.8205 525.542 79.8526 529.634 79.0747C533.726 78.2969 537.957 78.7437 541.796 80.3592C545.636 81.9746 548.913 84.687 551.218 88.1565C553.523 91.6261 554.753 95.6986 554.754 99.864C554.723 102.675 554.139 105.452 553.035 108.037C551.931 110.621 550.329 112.964 548.32 114.929C546.31 116.895 543.934 118.445 541.325 119.492C538.717 120.539 535.927 121.062 533.117 121.031M533.117 58.3715C525.028 58.5603 517.174 61.1315 510.539 65.7631C503.904 70.3947 498.783 76.8808 495.817 84.4093C492.852 91.9377 492.173 100.174 493.866 108.086C495.56 115.999 499.55 123.235 505.337 128.891C511.124 134.546 518.451 138.368 526.4 139.878C534.35 141.389 542.568 140.52 550.026 137.382C557.484 134.243 563.85 128.974 568.328 122.234C572.805 115.494 575.195 107.583 575.197 99.4919C575.063 88.4611 570.555 77.9346 562.665 70.2245C554.775 62.5145 544.148 58.2513 533.117 58.3715Z" fill="black"/>
<path d="M336.847 62.3439L315.876 119.501L294.885 62.3439H273.443L302.306 140.943H329.445L358.386 62.3439H336.847ZM367.257 62.3439H388.796V140.943H367.257V62.3439ZM210.079 118.933H249.378L257.485 140.943H280.297L238.041 25.825H221.475L179.219 140.943H202.031L210.079 118.933ZM229.66 65.4377L242.955 101.624H216.462L229.66 65.4377Z" fill="black"/>
<rect x="367.219" y="61.825" width="48" height="14" fill="black"/>
<rect x="367.219" y="92.825" width="48" height="15" fill="black"/>
<rect x="367.219" y="126.825" width="48" height="14" fill="black"/>
</g>
<defs>
<clipPath id="clip0_506_154">
<rect width="575.197" height="162.72" fill="white"/>
</clipPath>
</defs>
</svg>
