<?xml version="1.0" encoding="utf-8"?><!-- Uploaded to: SVG Repo, www.svgrepo.com, Generator: SVG Repo Mixer Tools -->
<svg width="800px" height="800px" viewBox="0 0 192 192" xmlns="http://www.w3.org/2000/svg" xml:space="preserve" fill="#fff">
<path fill="#ffffff" d="M128.689 47.57H20.396v116.843h30.141V126.4h57.756l26.352 38.013h33.75l-29.058-38.188c9.025-1.401 15.522-4.73 19.493-9.985 3.97-5.255 5.956-13.664 5.956-24.875v-8.759c0-6.657-.721-11.912-1.985-15.941-1.264-4.029-3.43-7.533-6.498-10.686-3.249-2.978-6.858-5.08-11.19-6.481-4.332-1.226-9.747-1.927-16.424-1.927zm-4.873 53.08H50.537V73.321h73.279c4.15 0 7.038.7 8.482 1.927 1.444 1.226 2.347 3.503 2.347 6.832v9.81c0 3.503-.903 5.78-2.347 7.006s-4.331 1.752-8.482 1.752z" style="display:inline;fill:#fff;stroke:#fff;stroke-width:12;stroke-linecap:round;stroke-linejoin:round;stroke-dasharray:none;stroke-opacity:1" />
</svg>